<svg id="Layer_1" data-name="Layer 1" xmlns="http://www.w3.org/2000/svg" viewBox="0 0 80 140"><defs><style>.cls-1{fill:#e84d37;}</style></defs><title>Монтажная область 1</title><path class="cls-1" d="M40,7.1A28.28,28.28,0,0,1,64.55,49.43,9.29,9.29,0,1,1,54,59.94c-.35.2-.71.39-1.07.58a13.14,13.14,0,0,1-25.94,0c-.36-.19-.72-.38-1.07-.58A9.29,9.29,0,1,1,15.45,49.43,28.28,28.28,0,0,1,40,7.1m0-7a35.27,35.27,0,0,0-33.62,46A16.26,16.26,0,0,0,25.44,72.38a20.22,20.22,0,0,0,29.12,0A16.26,16.26,0,0,0,73.62,46.1,35.27,35.27,0,0,0,40,.1Z"/><path class="cls-1" d="M63.23,78.91a20.1,20.1,0,0,1-8-1.68c-.37.3-.76.57-1.15.85l.53.52-3.9,3.9L49,80.83c-.68.27-1.38.51-2.1.73l2.36,2.35-3.9,3.9-3.89-3.9L43,82.36a24.94,24.94,0,0,1-3,.2,23.48,23.48,0,0,1-2.92-.19l1.55,1.54-3.9,3.9-3.9-3.9,2.34-2.34a20.76,20.76,0,0,1-2.1-.72L29.42,82.5l-3.9-3.9.49-.49c-.41-.29-.81-.57-1.2-.88a20.1,20.1,0,0,1-8,1.68c-.2,0-.4,0-.6,0a3.47,3.47,0,0,0,.16,1.62l20.38,57.12a1.67,1.67,0,0,0,.08.2l.09.2a3.26,3.26,0,0,0,.24.4l.09.13a3.55,3.55,0,0,0,.41.46l.1.08a3.68,3.68,0,0,0,.39.3l.18.1a3.36,3.36,0,0,0,.43.2l.11.05.05,0,.39.1.17,0a3.16,3.16,0,0,0,1.12,0l.17,0,.39-.1.06,0,.11-.05a4,4,0,0,0,.42-.2l.18-.11a2.19,2.19,0,0,0,.39-.29l.11-.08a4.49,4.49,0,0,0,.41-.46l.08-.13a3.26,3.26,0,0,0,.24-.4l.09-.2.09-.2L63.67,80.5a3.47,3.47,0,0,0,.16-1.62C63.63,78.88,63.43,78.91,63.23,78.91Zm-14,15.63-3.9,3.9-3.89-3.9,3.89-3.9ZM36.14,99.85,40,96l3.9,3.89-3.9,3.9Zm7.8,10.63-3.9,3.9-3.9-3.9,3.9-3.9ZM40,85.33l3.9,3.9L40,93.13l-3.9-3.9Zm-1.41,9.21-3.9,3.9-3.9-3.9,3.9-3.9ZM23.72,80.4,24.1,80,28,83.91l-2.23,2.23Zm2.8,7.83,2.9-2.9,3.89,3.9-3.89,3.9-1.8-1.8Zm2.79,7.83.11-.1,3.89,3.89-2,2Zm4.21,11.79-1.42-4,2.63-2.62,3.9,3.9-3.9,3.89ZM37,117.47l-1.87-5.22,3.55,3.54ZM40,126l-2.31-6.48L40,117.2l2.29,2.29Zm3.07-8.62-1.61-1.62,3.41-3.41ZM46.44,108l-1.09,1.08-3.89-3.89,3.89-3.9,2.57,2.56Zm2.22-6.23-1.89-1.9L50.66,96l.05,0Zm3.67-10.29-1.66,1.67-3.9-3.9,3.9-3.9,2.83,2.84Zm1.92-5.38-2.17-2.16L56,80l.32.32Z"/></svg>