<svg id="Layer_1" data-name="Layer 1" xmlns="http://www.w3.org/2000/svg" viewBox="0 0 32 32"><defs><style>.cls-1{fill:#fff;}</style></defs><title>Монтажная область 1</title><path class="cls-1" d="M16.64,14.49a2.58,2.58,0,0,0,.95-.18,1.2,1.2,0,0,0,.64-.56,2,2,0,0,0,.15-.8,1.55,1.55,0,0,0-.18-.7,1.05,1.05,0,0,0-.61-.51,3,3,0,0,0-1-.17h-2v3h.57C15.75,14.52,16.24,14.51,16.64,14.49Z"/><path class="cls-1" d="M18.12,17.08A4.85,4.85,0,0,0,17,17H14.61v3.5h2.45a3.23,3.23,0,0,0,1.21-.25,1.46,1.46,0,0,0,.77-.62,1.9,1.9,0,0,0,.22-.9,1.76,1.76,0,0,0-.26-1A1.6,1.6,0,0,0,18.12,17.08Z"/><path class="cls-1" d="M16,0A16,16,0,1,0,32,16,16,16,0,0,0,16,0Zm6.6,20.53a3.7,3.7,0,0,1-1.12,1.33,5.17,5.17,0,0,1-1.83.88,9.76,9.76,0,0,1-2.51.27H11V9h5.45a18.68,18.68,0,0,1,2.48.11,5.25,5.25,0,0,1,1.56.5,2.75,2.75,0,0,1,1.19,1.09,3.05,3.05,0,0,1,.39,1.55,3.08,3.08,0,0,1-.54,1.8A3.46,3.46,0,0,1,20,15.25v.07a4,4,0,0,1,2.18,1.13,3.2,3.2,0,0,1,.8,2.26A3.84,3.84,0,0,1,22.6,20.53Z"/></svg>