<svg id="Layer_1" data-name="Layer 1" xmlns="http://www.w3.org/2000/svg" viewBox="0 0 49 49"><defs><style>.cls-1{fill:#323232;}</style></defs><title>Монтажная область 1</title><path class="cls-1" d="M24.5,0A24.5,24.5,0,1,0,49,24.5,24.5,24.5,0,0,0,24.5,0Zm0,47A22.5,22.5,0,1,1,47,24.5,22.52,22.52,0,0,1,24.5,47Z"/><path class="cls-1" d="M34.81,26.76c-.45-9.5-9.2-18.7-9.59-19.1,0,0,0,0,0,0l-.12-.09-.13-.08-.05,0-.08,0-.14,0h-.29l-.16,0h-.07l-.05,0-.14.08-.11.09s0,0,0,0c-.39.4-9.14,9.61-9.59,19.1a1.48,1.48,0,0,0,0,.21c0,.36,0,.72,0,1.09.37,10.25,10,12.82,10.07,12.84l.25,0a1.07,1.07,0,0,0,.25,0c.09,0,9.7-2.59,10.07-12.84,0-.37,0-.73,0-1.09A1.48,1.48,0,0,0,34.81,26.76Zm-18-3.51a24.78,24.78,0,0,0,6.72,4.09v4.55c-2.45-1.19-6.22-3.34-7.3-5.23A17.5,17.5,0,0,1,16.78,23.25Zm2-5.1a12.33,12.33,0,0,0,4.69,3.06v3.94a19.23,19.23,0,0,1-6-4A29.3,29.3,0,0,1,18.81,18.15Zm12.71,3a19.18,19.18,0,0,1-6,4V21.21a12.33,12.33,0,0,0,4.69-3.06A29.3,29.3,0,0,1,31.52,21.11Zm-6-2.06V11a45.15,45.15,0,0,1,3.65,5.23A9.09,9.09,0,0,1,25.5,19.05Zm0,12.84V27.34a24.78,24.78,0,0,0,6.72-4.09,17.47,17.47,0,0,1,.58,3.42C31.72,28.55,28,30.69,25.5,31.89Zm-2-12.84a9,9,0,0,1-3.65-2.78A45.15,45.15,0,0,1,23.5,11ZM16.38,29.82a33.68,33.68,0,0,0,7.12,4.29v4.4A11.75,11.75,0,0,1,16.38,29.82Zm9.12,8.7V34.11a33.68,33.68,0,0,0,7.12-4.29A11.59,11.59,0,0,1,25.5,38.52Z"/></svg>