<svg id="Слой_1" data-name="Слой 1" xmlns="http://www.w3.org/2000/svg" viewBox="0 0 49 49"><defs><style>.cls-1{fill:#323232;}</style></defs><title>Монтажная область 1</title><g id="Layer_2" data-name="Layer 2"><path class="cls-1" d="M24.5,0A24.5,24.5,0,1,0,49,24.5,24.5,24.5,0,0,0,24.5,0Zm0,47A22.5,22.5,0,1,1,47,24.5,22.52,22.52,0,0,1,24.5,47Z"/><path class="cls-1" d="M34.81,19.34a12.28,12.28,0,0,0,.43-9.48,1,1,0,0,0-1.82-.18c-1.27,2.27-4,5.92-6.05,6.09,0,0-.05,0-.08,0a16.14,16.14,0,0,0-2.79-.3,16.79,16.79,0,0,0-2.8.29l-.07,0c-2-.17-4.78-3.83-6-6.09a1,1,0,0,0-1.82.18,12.28,12.28,0,0,0,.43,9.48c-1.75.22-4,.78-4.76,2.19a2.17,2.17,0,0,0,0,2.2A2.44,2.44,0,0,0,11.79,25a7.07,7.07,0,0,0,2.35-.48,7.24,7.24,0,0,0,.13,1.61A34.21,34.21,0,0,0,16,31.3c.18.48.39,1,.5,1.33a14.84,14.84,0,0,0-.76,2.48,4.39,4.39,0,0,0,1.12,3.31c1.44,1.65,4,2.5,7.62,2.5s6.17-.85,7.62-2.5a4.43,4.43,0,0,0,1.12-3.31,14.87,14.87,0,0,0-.77-2.48c.12-.32.32-.85.51-1.32a34.69,34.69,0,0,0,1.75-5.21,8.68,8.68,0,0,0,.14-1.61,7,7,0,0,0,2.34.48,2.45,2.45,0,0,0,2.33-1.24,2.19,2.19,0,0,0,0-2.2C38.76,20.12,36.56,19.56,34.81,19.34Zm-1-6.63a9.48,9.48,0,0,1-1,6.11A9.37,9.37,0,0,0,32,18a6.72,6.72,0,0,0-1.89-1.26A17,17,0,0,0,33.86,12.71Zm-18.72,0a17.07,17.07,0,0,0,3.71,4A6.5,6.5,0,0,0,17,18a10.56,10.56,0,0,0-.78.87A9.59,9.59,0,0,1,15.14,12.71ZM11.21,22.77c-.09-.16-.06-.21,0-.25.22-.39,1.39-1,3.61-1.23a7.47,7.47,0,0,0-.3.87C13.21,22.84,11.48,23.26,11.21,22.77Zm21.56,3a33,33,0,0,1-1.65,4.84,15.53,15.53,0,0,0-.68,1.88l-.07.3.12.29a16.17,16.17,0,0,1,.77,2.35,2.39,2.39,0,0,1-.65,1.72c-.72.82-2.36,1.81-6.11,1.81s-5.39-1-6.11-1.81a2.39,2.39,0,0,1-.65-1.72A16.17,16.17,0,0,1,18.51,33l.12-.29-.07-.3a15.53,15.53,0,0,0-.68-1.88,33,33,0,0,1-1.65-4.84,7.21,7.21,0,0,1,2.15-6.36c1.51-1.53,4.93-1.87,6.12-1.87s4.54.34,6.14,1.88A7.13,7.13,0,0,1,32.77,25.73Zm5-3c-.26.48-2,.07-3.24-.59a7.16,7.16,0,0,0-.3-.89c2.2.23,3.36.84,3.58,1.23C37.85,22.56,37.88,22.61,37.79,22.77Z"/></g></svg>