<svg id="Layer_1" data-name="Layer 1" xmlns="http://www.w3.org/2000/svg" viewBox="0 0 61 61"><defs><style>.cls-1{fill:#fff;}.cls-2{fill:#231f20;}</style></defs><title>Монтажная область 1</title><circle class="cls-1" cx="30.5" cy="30.5" r="30.5"/><path class="cls-2" d="M20,18.27c-.92,2.68-1.72,5.38-2.48,8.09a49.51,49.51,0,0,1-1-8.71c0-.43-1.94-.11-1.94.52A58.29,58.29,0,0,0,16.37,30.6c-1.2,4.58-2.31,9.18-3.58,13.77-.11.39,1.77.14,1.91-.34.9-3.27,1.72-6.54,2.55-9.8.81,3.2,1.65,6.4,2.27,9.65.1.51,2.05,0,1.94-.52-.87-4.46-2.12-8.83-3.15-13.24C19.38,26,20.51,22,21.89,17.93,22,17.57,20.15,17.78,20,18.27Z"/><path class="cls-2" d="M34.4,18.8c0-1.05-1.92-.8-2,.13a1.77,1.77,0,0,1,0,.23.81.81,0,0,0-.1.21,135.93,135.93,0,0,1-4.05,13.06c-.65,1.93-1.14,3.9-1.67,5.85-.14-6.62-.13-13.23-.16-19.87,0-1-2-.77-2,.14,0,8.33,0,16.64.31,25a.73.73,0,0,0,0,.3c0,.15.05.3.07.44.12.86,2,.48,1.94-.31l0,0c1.64-4.17,2.48-8.59,3.9-12.84l1.56-4.66c-.07,6,.06,12,.21,18,0,1,1.58.77,1.91.06a.61.61,0,0,0,0-.12.49.49,0,0,0,0-.55C34.18,35.43,34,27.13,34.4,18.8Z"/><path class="cls-2" d="M47.32,17.66a53.6,53.6,0,0,1-9.48.05c-.49,0-2.24.85-1.22.91s2.18.1,3.27.14a.39.39,0,0,0-.16.27c.3,8.4-1,17.23.2,25.56.06.42,2,0,1.93-.52-1.23-8.23.07-16.95-.19-25.27A43.24,43.24,0,0,0,47,18.54C47.86,18.43,48.67,17.5,47.32,17.66Z"/></svg>