<svg id="Layer_1" data-name="Layer 1" xmlns="http://www.w3.org/2000/svg" viewBox="0 0 49 49"><defs><style>.cls-1{fill:#323232;}</style></defs><title>Монтажная область 1</title><path class="cls-1" d="M24.5,0A24.5,24.5,0,1,0,49,24.5,24.5,24.5,0,0,0,24.5,0Zm0,47A22.5,22.5,0,1,1,47,24.5,22.52,22.52,0,0,1,24.5,47Z"/><path class="cls-1" d="M28.94,13.12a5,5,0,0,0-10.06,0V27.76a7,7,0,0,0-2,4.93,7.13,7.13,0,1,0,12.06-5.13Zm.18,19.57a5.12,5.12,0,1,1-8.24-4V13.12a3,3,0,0,1,6.06,0V28.5A5.09,5.09,0,0,1,29.12,32.69Z"/><path class="cls-1" d="M25,29.56V13.19a1,1,0,1,0-2,0V29.56a3,3,0,1,0,2,0Z"/><rect class="cls-1" x="31" y="12" width="6" height="2"/><rect class="cls-1" x="31" y="16" width="6" height="2"/><rect class="cls-1" x="31" y="20" width="6" height="2"/><rect class="cls-1" x="31" y="24" width="6" height="2"/></svg>