<svg id="Слой_1" data-name="Слой 1" xmlns="http://www.w3.org/2000/svg" viewBox="0 0 49 49"><defs><style>.cls-1{fill:#323232;}</style></defs><title>Монтажная область 1</title><g id="Layer_2" data-name="Layer 2"><path class="cls-1" d="M24.5,0A24.5,24.5,0,1,0,49,24.5,24.5,24.5,0,0,0,24.5,0Zm0,47A22.5,22.5,0,1,1,47,24.5,22.52,22.52,0,0,1,24.5,47Z"/><path class="cls-1" d="M24.5,7.62a8.51,8.51,0,0,0-8.44,7.5H16V32H33V15.12h-.06A8.51,8.51,0,0,0,24.5,7.62ZM31,30H18V20.78a1.79,1.79,0,0,0,1.54.64c1.29,0,2.13-.72,2.13-1.63v-.87h0a.86.86,0,1,1,1.71,0,0,0,0,0,0,0,0s0,0,0,0v3.29a1.87,1.87,0,0,0,2.12,1.83,1.86,1.86,0,0,0,2.12-1.75V20.08h0a1.35,1.35,0,1,1,2.69,0,.41.41,0,0,0,0,.09,1.13,1.13,0,0,0,.67.89v9Z"/><path class="cls-1" d="M23,40.12a1.5,1.5,0,1,0,3,0V33H23Z"/></g></svg>